<svg xmlns="http://www.w3.org/2000/svg" viewBox="0 0 220 160" role="img" aria-labelledby="title">
  <title>Butterfly</title>
  <defs>
    <style>
      .orange{fill:none;stroke:#ee914d;stroke-width:6;stroke-linecap:round;stroke-linejoin:round}
      .gray{fill:none;stroke:#d7d9d3;stroke-width:3.4;stroke-linecap:round;stroke-linejoin:round}
      .dark{fill:#3a3a38}
      .soft{fill:#ee914d}
    </style>
  </defs>
  <path class="orange" d="M108 66C82 18 40 13 22 28 7 41 19 70 54 80 31 83 24 113 41 127c19 15 48-4 65-45"/>
  <path class="orange" d="M112 66c26-48 68-53 86-38 15 13 3 42-32 52 23 3 30 33 13 47-19 15-48-4-65-45"/>
  <path class="orange" d="M108 66c-23-22-55-30-76-25"/>
  <path class="orange" d="M112 66c23-22 55-30 76-25"/>
  <path class="gray" d="M101 78C74 50 42 43 28 52"/>
  <path class="gray" d="M119 78c27-28 59-35 73-26"/>
  <path class="gray" d="M97 86c-18 2-33 11-43 26"/>
  <path class="gray" d="M123 86c18 2 33 11 43 26"/>
  <path class="orange" d="M83 37c-9-19-28-21-39-10 12-1 25 8 31 24"/>
  <path class="orange" d="M137 37c9-19 28-21 39-10-12-1-25 8-31 24"/>
  <path class="orange" d="M63 115c14-1 27-12 36-33"/>
  <path class="orange" d="M157 115c-14-1-27-12-36-33"/>
  <path class="gray" d="M73 67c-10-5-20-6-29-3"/>
  <path class="gray" d="M147 67c10-5 20-6 29-3"/>
  <path class="orange" d="M93 22c9 11 13 24 14 41"/>
  <path class="orange" d="M127 22c-9 11-13 24-14 41"/>
  <path class="dark" d="M107 58h6c5 10 7 22 6 36-1 19-5 34-9 34s-8-15-9-34c-1-14 1-26 6-36Z"/>
  <path class="soft" d="M104 57c0-5 3-9 6-9s6 4 6 9-3 9-6 9-6-4-6-9Z"/>
  <path class="orange" d="M104 31c-14-17-32-22-49-15"/>
  <path class="orange" d="M116 31c14-17 32-22 49-15"/>
</svg>
